<?xml version="1.0" standalone="no"?>
<!DOCTYPE svg PUBLIC "-//W3C//DTD SVG 20010904//EN"
 "http://www.w3.org/TR/2001/REC-SVG-20010904/DTD/svg10.dtd">
<svg version="1.0" xmlns="http://www.w3.org/2000/svg"
 width="900.000000pt" height="900.000000pt" viewBox="0 0 900.000000 900.000000"
 preserveAspectRatio="xMidYMid meet">
<metadata>
Created by potrace 1.11, written by Peter Selinger 2001-2013
</metadata>
<g transform="translate(0.000000,900.000000) scale(0.100000,-0.100000)"
fill="#000000" stroke="none">
<path d="M4807 8504 c-1 -1 -67 -5 -147 -8 -80 -4 -156 -9 -170 -11 -14 -2
-28 -4 -31 -4 -3 -1 -12 -20 -19 -43 -8 -24 -17 -47 -20 -53 -4 -5 -13 -28
-19 -50 -7 -22 -18 -56 -26 -75 -8 -19 -41 -111 -75 -205 -34 -93 -70 -192
-80 -220 -34 -91 -230 -634 -234 -650 -2 -5 -6 -17 -9 -25 -3 -8 -22 -60 -42
-115 -20 -55 -43 -116 -51 -135 -8 -19 -16 -44 -19 -55 -2 -11 -18 -56 -35
-100 -17 -44 -33 -84 -34 -90 -3 -10 -8 -25 -23 -62 -9 -24 -9 -24 -18 -58 -4
-16 -11 -34 -15 -40 -4 -5 -17 -39 -29 -75 -12 -36 -33 -94 -46 -130 -13 -36
-37 -101 -53 -145 -16 -44 -33 -89 -37 -100 -4 -11 -9 -27 -11 -35 -2 -8 -10
-30 -18 -50 -8 -19 -33 -84 -55 -145 -92 -255 -112 -311 -116 -325 -6 -23
-137 -381 -155 -425 -5 -11 -20 -56 -35 -100 -15 -44 -31 -86 -37 -92 -6 -7
-8 -13 -4 -13 4 0 0 -13 -9 -30 -9 -16 -13 -30 -9 -30 4 0 2 -6 -3 -12 -6 -7
-21 -44 -33 -83 -12 -38 -25 -74 -29 -80 -3 -5 -6 -14 -7 -20 -1 -5 -19 -55
-39 -110 -20 -55 -54 -147 -75 -205 -20 -58 -42 -116 -47 -130 -6 -14 -18 -47
-27 -75 -24 -71 -116 -326 -127 -350 -4 -11 -54 -146 -109 -300 -55 -154 -103
-287 -107 -295 -3 -8 -8 -23 -10 -33 -1 -10 -10 -32 -19 -49 -9 -17 -18 -42
-20 -56 -3 -15 -9 -31 -14 -37 -5 -7 -11 -20 -13 -31 -2 -10 -7 -26 -10 -34
-15 -38 -124 -339 -167 -460 -91 -256 -130 -365 -137 -380 -3 -8 -7 -19 -9
-25 -3 -12 -3 -11 -129 -356 -54 -145 -98 -268 -99 -274 -2 -5 -8 -23 -15 -40
-16 -38 -71 -203 -77 -230 -3 -11 -8 -31 -11 -45 -3 -14 -6 -32 -7 -40 -1 -9
-4 -20 -7 -25 -5 -9 -10 -65 -13 -145 -2 -41 19 -121 44 -171 53 -103 192
-182 360 -205 167 -22 512 -21 622 2 15 3 31 5 35 4 4 -1 22 40 41 92 19 51
47 129 64 173 16 44 31 87 33 95 2 8 4 17 5 20 1 3 2 8 1 13 0 4 4 7 10 7 5 0
8 4 4 9 -3 5 -1 12 5 16 5 3 10 14 10 24 0 10 9 39 21 65 11 26 22 55 24 64 6
23 63 182 75 207 5 11 20 52 33 90 53 154 99 282 112 310 7 17 18 46 23 65 5
19 26 78 47 130 20 52 38 102 40 110 2 8 52 146 110 305 59 160 108 295 109
300 1 6 12 37 25 70 23 59 100 275 147 410 14 39 29 79 34 90 5 11 23 61 40
110 17 50 34 97 37 105 4 8 7 17 8 20 9 26 18 48 26 62 5 10 9 27 9 37 0 11 5
23 10 26 6 3 10 12 10 20 0 8 5 26 11 42 12 30 59 158 104 283 14 41 30 84 35
95 13 29 110 297 114 315 4 15 40 114 59 160 6 14 12 33 14 43 1 10 9 30 17
45 7 15 17 41 21 57 10 35 10 35 20 60 26 67 57 148 75 205 12 36 25 69 28 75
4 5 7 15 8 20 1 6 18 55 39 110 20 55 50 138 66 185 16 47 34 94 39 105 13 30
91 248 95 267 2 10 10 32 19 50 8 18 21 53 29 78 9 25 21 59 28 75 7 17 13 35
15 40 5 21 67 191 80 222 8 17 14 36 14 42 0 6 7 25 15 43 8 18 35 92 61 163
25 72 62 173 81 225 92 253 135 376 136 388 0 6 3 12 6 12 4 0 13 21 20 48 8
26 18 53 24 60 5 6 7 12 4 12 -3 0 7 32 23 70 16 39 26 70 23 70 -3 0 0 7 7
15 7 8 10 15 7 15 -3 0 2 19 12 43 23 54 33 79 37 92 2 11 52 151 61 175 4 8
7 17 8 20 0 3 11 37 24 75 13 39 24 77 26 85 2 8 8 35 15 60 7 25 13 51 13 58
0 6 4 12 9 12 5 0 7 4 4 9 -3 4 1 41 8 81 21 107 14 252 -14 313 -23 52 -80
115 -120 133 -61 27 -78 34 -129 49 -30 8 -56 13 -59 10 -3 -2 -13 0 -22 5
-21 11 -332 33 -343 24z"/>
<path d="M6717 8504 c-1 -1 -56 -4 -122 -8 -144 -8 -184 -12 -191 -19 -3 -3
-19 -43 -35 -88 -16 -46 -32 -91 -36 -99 -3 -8 -7 -17 -8 -20 -1 -3 -4 -12 -8
-20 -3 -8 -13 -35 -21 -60 -17 -51 -54 -157 -63 -180 -4 -8 -5 -18 -5 -22 1
-5 -3 -8 -9 -8 -5 0 -7 -5 -4 -10 4 -6 3 -16 -2 -23 -8 -10 -63 -153 -70 -182
-3 -15 -102 -287 -112 -310 -5 -11 -14 -33 -19 -50 -29 -81 -184 -513 -192
-530 -4 -11 -25 -67 -45 -125 -20 -58 -40 -114 -45 -125 -5 -11 -21 -56 -36
-100 -15 -44 -31 -86 -37 -92 -5 -7 -7 -13 -4 -13 4 0 -2 -20 -13 -45 -11 -25
-19 -47 -20 -50 0 -3 -7 -21 -15 -41 -8 -20 -15 -40 -15 -44 0 -6 -67 -191
-87 -240 -3 -8 -7 -22 -9 -30 -2 -8 -10 -30 -18 -50 -8 -19 -63 -168 -121
-330 -58 -162 -114 -317 -125 -345 -10 -27 -51 -140 -91 -250 -39 -110 -96
-267 -126 -350 -30 -82 -63 -177 -75 -210 -11 -33 -26 -73 -33 -90 -7 -16 -21
-52 -30 -80 -9 -27 -21 -59 -25 -70 -10 -24 -94 -258 -96 -265 0 -3 -4 -12 -7
-20 -4 -8 -25 -67 -47 -130 -22 -63 -43 -122 -47 -130 -3 -8 -7 -17 -7 -20 -2
-10 -139 -386 -151 -415 -7 -16 -27 -73 -45 -125 -18 -52 -55 -153 -82 -225
-27 -71 -51 -137 -53 -145 -4 -18 -43 -126 -55 -155 -5 -11 -19 -49 -31 -85
-12 -36 -27 -71 -32 -77 -5 -7 -7 -13 -4 -13 4 0 -2 -20 -13 -45 -11 -25 -17
-45 -15 -45 2 0 -7 -25 -21 -55 -13 -31 -24 -61 -24 -68 0 -7 -6 -24 -14 -38
-7 -14 -16 -39 -20 -55 -4 -16 -13 -42 -21 -59 -7 -16 -27 -70 -45 -120 -17
-49 -35 -99 -40 -110 -4 -11 -33 -92 -65 -180 -31 -88 -62 -173 -68 -190 -7
-16 -12 -32 -12 -35 -1 -3 -8 -21 -17 -41 -9 -20 -19 -51 -23 -70 -4 -19 -11
-38 -15 -44 -9 -11 -49 -170 -57 -225 -7 -50 -6 -170 2 -200 3 -14 7 -29 9
-35 12 -50 82 -142 131 -172 44 -28 101 -53 160 -70 113 -33 344 -45 580 -29
189 12 174 2 228 154 83 231 107 297 113 312 4 8 8 20 10 25 1 6 19 55 39 110
20 55 58 161 85 235 27 74 66 185 88 247 23 61 46 122 53 135 7 13 12 24 11
25 -1 2 0 8 3 15 12 37 97 277 106 300 6 15 11 30 10 33 -1 3 6 19 14 35 9 17
13 30 9 30 -4 0 -2 6 4 13 8 10 65 160 76 202 2 6 6 17 9 25 9 20 58 152 61
165 2 6 6 17 9 25 8 19 78 212 81 225 2 6 8 21 13 35 6 14 22 61 37 105 15 44
31 89 36 100 6 11 28 70 49 130 85 237 130 362 149 411 12 29 18 55 15 58 -4
3 -2 6 4 6 5 0 10 6 10 13 1 10 80 233 100 277 3 8 7 20 8 25 3 14 144 405
155 430 10 23 91 245 94 260 4 12 15 43 26 70 5 11 14 38 21 60 7 22 16 45 20
50 3 6 9 24 13 40 4 17 14 44 21 60 15 34 54 142 60 165 2 8 9 29 16 45 7 17
13 32 13 35 1 3 6 19 13 35 22 58 26 70 28 75 5 20 29 87 34 95 3 6 6 12 6 15
0 3 6 19 12 35 11 26 99 272 240 665 25 69 51 139 58 155 10 24 46 125 50 145
1 3 6 16 12 30 6 14 18 48 27 75 9 28 21 59 26 70 13 28 90 243 102 285 5 19
13 40 18 45 4 6 10 24 14 40 4 17 13 44 21 60 7 17 27 71 45 120 17 50 34 97
37 105 4 8 7 17 8 20 1 3 4 12 7 20 3 8 20 56 38 105 17 50 34 97 37 105 4 8
7 17 8 20 1 3 4 12 8 20 6 15 40 121 42 130 2 9 26 95 29 105 2 6 4 13 5 17 1
4 7 22 12 40 10 32 12 43 24 103 16 85 19 118 18 205 -2 193 -79 284 -287 337
-65 16 -75 18 -181 29 -58 6 -263 12 -268 8z"/>
<path d="M2167 5824 c-1 -1 -32 -4 -69 -8 -37 -3 -78 -10 -92 -16 -14 -5 -26
-8 -26 -5 0 10 -200 -85 -220 -105 -3 -3 -23 -18 -45 -34 -43 -32 -207 -196
-540 -540 -115 -120 -275 -284 -355 -366 -145 -148 -470 -483 -678 -699 l-111
-114 32 -46 c17 -25 34 -47 39 -49 4 -2 8 -10 8 -17 0 -8 6 -20 13 -27 13 -13
183 -254 202 -286 6 -9 13 -19 16 -22 3 -3 32 -43 64 -90 109 -159 169 -245
175 -250 3 -3 10 -12 15 -21 36 -60 101 -149 107 -149 4 0 8 -6 8 -14 0 -8 6
-21 13 -28 7 -7 24 -29 37 -48 13 -19 27 -37 31 -40 3 -3 12 -16 19 -30 7 -13
36 -56 64 -95 28 -39 56 -78 61 -87 27 -45 220 -313 227 -316 4 -2 8 -8 8 -12
0 -5 25 -45 57 -90 53 -76 58 -80 94 -80 50 0 163 24 231 50 101 38 211 121
284 215 123 158 157 413 74 560 -17 31 -151 218 -193 270 -4 6 -33 44 -64 85
-30 41 -64 86 -74 100 -11 14 -37 50 -59 80 -22 30 -43 60 -48 65 -4 6 -21 28
-37 50 -17 22 -33 44 -38 50 -4 5 -21 28 -37 50 -16 22 -33 45 -38 50 -4 6
-25 35 -47 65 -22 30 -42 57 -45 60 -3 3 -23 30 -45 60 -22 30 -45 61 -52 68
-16 17 -16 20 -1 36 7 8 106 110 220 227 114 118 251 260 305 316 54 55 188
195 298 309 110 115 298 305 418 424 l217 216 -25 49 c-37 74 -101 138 -180
180 -51 28 -202 61 -218 49z"/>
<path d="M8538 5825 c-2 -2 -29 -5 -61 -9 -32 -3 -62 -8 -66 -10 -4 -3 -23 -8
-42 -11 -50 -9 -144 -53 -224 -104 -69 -44 -237 -208 -617 -603 -87 -90 -222
-229 -300 -310 -131 -134 -387 -398 -697 -717 -70 -73 -117 -129 -113 -136 4
-6 32 -46 62 -89 30 -43 62 -89 70 -102 8 -12 48 -68 88 -124 39 -56 72 -103
72 -106 0 -2 7 -12 15 -21 8 -10 70 -99 139 -198 69 -99 129 -185 135 -192 6
-7 11 -16 11 -22 0 -5 4 -11 8 -13 5 -1 28 -32 52 -68 24 -36 47 -66 52 -68 4
-2 8 -9 8 -15 1 -7 14 -28 30 -47 17 -19 30 -40 30 -47 0 -7 3 -13 8 -13 4 0
18 -18 32 -40 14 -22 28 -40 32 -40 5 0 8 -5 8 -10 0 -6 5 -16 11 -23 13 -16
85 -119 196 -282 48 -71 94 -136 100 -143 7 -7 29 -38 49 -68 32 -48 49 -60
77 -55 4 1 25 3 45 6 84 11 100 14 155 34 62 22 140 61 145 74 2 4 9 7 15 7
37 1 214 208 222 260 0 3 6 14 12 25 20 36 40 168 38 246 -2 48 -11 93 -25
129 -18 45 -97 165 -179 270 -11 14 -58 77 -105 140 -47 63 -89 120 -93 125
-5 6 -24 32 -43 59 -19 28 -42 57 -50 67 -8 9 -53 69 -100 134 -47 65 -90 123
-95 129 -6 6 -41 53 -79 104 l-68 92 75 78 c296 304 309 318 736 762 124 129
325 332 445 451 l219 217 -33 58 c-48 86 -139 163 -220 189 -64 20 -173 38
-182 30z"/>
</g>
</svg>
