<?xml version="1.0" standalone="no"?><!-- Generator: Gravit.io --><svg xmlns="http://www.w3.org/2000/svg" xmlns:xlink="http://www.w3.org/1999/xlink" style="isolation:isolate" width="800" height="800"><path d=" M 174.5 437.8 L 253.7 356.2 Q 266.5 343.4 282.5 343.4 Q 288.5 343.4 294.3 347 Q 300.1 350.6 302.5 357.4 L 287.7 371.8 L 228.9 432.6 L 266.1 482.6 Q 270.9 488.6 270.9 495.2 Q 270.9 501.8 268.9 507.2 Q 266.9 512.6 262.5 517 Q 253.7 527 237.3 527.8 L 174.5 437.8 Z  M 261.3 589.4000000000001 Q 261.3 582.2 264.90000000000003 571.8 L 395.70000000000005 210.59999999999997 Q 402.90000000000003 209.39999999999998 417.1 209.39999999999998 Q 431.3 209.39999999999998 439.90000000000003 213.2 Q 448.5 217 448.5 228.60000000000002 Q 448.5 238.60000000000002 442.1 257 L 314.90000000000003 608.2 Q 311.70000000000005 609.8 292.90000000000003 609.8 Q 261.3 609.8 261.3 589.4000000000001 Z  M 358.70000000000005 589.4000000000001 Q 358.70000000000005 582.2 362.3 571.8 L 493.1 210.59999999999997 Q 500.3 209.39999999999998 514.5 209.39999999999998 Q 528.7 209.39999999999998 537.3000000000001 213.2 Q 545.9000000000001 217 545.9000000000001 228.60000000000002 Q 545.9000000000001 238.60000000000002 539.5 257 L 412.3 608.2 Q 409.1 609.8 390.3 609.8 Q 358.70000000000005 609.8 358.70000000000005 589.4000000000001 Z  M 493.5 437.8 L 572.7 356.2 Q 585.5 343.4 601.5 343.4 Q 607.5 343.4 613.3 347 Q 619.1 350.6 621.5 357.4 L 606.7 371.8 L 547.9 432.6 L 585.1 482.6 Q 589.9 488.6 589.9 495.2 Q 589.9 501.8 587.9 507.2 Q 585.9 512.6 581.5 517 Q 572.7 527 556.3 527.8 L 493.5 437.8 Z " fill-rule="evenodd" fill="rgb(23,23,23)" stroke-width="1" stroke="rgba(0,0,0,0)"/></svg>